<svg width="72" height="72" viewBox="0 0 72 72" fill="none" xmlns="http://www.w3.org/2000/svg">
<g id="BowlSteam">
<path id="Vector" d="M63 31.5H9C8.40326 31.5 7.83097 31.7371 7.40901 32.159C6.98705 32.581 6.75 33.1533 6.75 33.75C6.75989 39.1009 8.23245 44.3472 11.0084 48.9216C13.7844 53.496 17.7582 57.2245 22.5 59.7038V60.75C22.5 61.9435 22.9741 63.0881 23.818 63.932C24.6619 64.7759 25.8065 65.25 27 65.25H45C46.1935 65.25 47.3381 64.7759 48.182 63.932C49.0259 63.0881 49.5 61.9435 49.5 60.75V59.7038C54.2418 57.2245 58.2156 53.496 60.9916 48.9216C63.7676 44.3472 65.2401 39.1009 65.25 33.75C65.25 33.1533 65.0129 32.581 64.591 32.159C64.169 31.7371 63.5967 31.5 63 31.5ZM46.3106 56.25C45.9195 56.4298 45.5881 56.7179 45.3557 57.0804C45.1234 57.4428 45 57.8642 45 58.2947V60.75H27V58.3003C27.0011 57.8689 26.8782 57.4462 26.6458 57.0827C26.4134 56.7192 26.0814 56.4302 25.6894 56.25C21.7325 54.4292 18.3242 51.5996 15.8065 48.0453C13.2889 44.4909 11.7504 40.3369 11.3456 36H60.6459C60.2419 40.336 58.7047 44.4895 56.1886 48.0437C53.6725 51.598 50.2659 54.4281 46.3106 56.25ZM22.9978 15.4688C24.5025 13.5957 24.8738 12.33 24.7191 11.7732C24.6009 11.3541 24.0413 11.1375 24.0356 11.1375C23.5263 10.9702 23.0935 10.6264 22.8152 10.1682C22.5368 9.71007 22.4312 9.16755 22.5173 8.63842C22.6035 8.10928 22.8757 7.62829 23.2851 7.28208C23.6944 6.93587 24.2139 6.74719 24.75 6.75003C24.9769 6.7503 25.2025 6.78442 25.4194 6.85128C25.7006 6.93847 28.2066 7.78784 29.0166 10.44C29.7084 12.7097 28.8619 15.3478 26.5022 18.2841C24.9975 20.1572 24.6262 21.4228 24.7809 21.9797C24.8991 22.3988 25.4475 22.6097 25.4531 22.6125C25.9615 22.7796 26.3937 23.1224 26.6721 23.5794C26.9505 24.0364 27.0569 24.5777 26.9722 25.1061C26.8875 25.6344 26.6173 26.1154 26.21 26.4625C25.8028 26.8096 25.2851 27.0002 24.75 27C24.5231 26.9998 24.2975 26.9656 24.0806 26.8988C23.7994 26.8116 21.2934 25.9622 20.4834 23.31C19.7916 21.0403 20.6381 18.4022 22.9978 15.4688ZM34.2478 15.4688C35.7525 13.5957 36.1238 12.33 35.9691 11.7732C35.8509 11.3541 35.2913 11.1375 35.2856 11.1375C34.7763 10.9702 34.3435 10.6264 34.0652 10.1682C33.7868 9.71007 33.6812 9.16755 33.7673 8.63842C33.8535 8.10928 34.1257 7.62829 34.5351 7.28208C34.9444 6.93587 35.4639 6.74719 36 6.75003C36.2269 6.7503 36.4525 6.78442 36.6694 6.85128C36.9506 6.93847 39.4566 7.78784 40.2666 10.44C40.9584 12.7097 40.1119 15.3478 37.7522 18.2841C36.2475 20.1572 35.8762 21.4228 36.0309 21.9797C36.1491 22.3988 36.6975 22.6097 36.7031 22.6125C37.2115 22.7796 37.6437 23.1224 37.9221 23.5794C38.2005 24.0364 38.3069 24.5777 38.2222 25.1061C38.1375 25.6344 37.8673 26.1154 37.46 26.4625C37.0528 26.8096 36.5351 27.0002 36 27C35.7731 26.9998 35.5475 26.9656 35.3306 26.8988C35.0494 26.8116 32.5434 25.9622 31.7334 23.31C31.0416 21.0403 31.8881 18.4022 34.2478 15.4688ZM45.4978 15.4688C47.0025 13.5957 47.3737 12.33 47.2191 11.7732C47.1009 11.3541 46.5413 11.1375 46.5356 11.1375C46.0263 10.9702 45.5935 10.6264 45.3151 10.1682C45.0368 9.71007 44.9312 9.16755 45.0173 8.63842C45.1035 8.10928 45.3757 7.62829 45.7851 7.28208C46.1944 6.93587 46.7139 6.74719 47.25 6.75003C47.4769 6.7503 47.7025 6.78442 47.9194 6.85128C48.2006 6.93847 50.7066 7.78784 51.5166 10.44C52.2084 12.7097 51.3619 15.3478 49.0022 18.2841C47.4975 20.1572 47.1263 21.4228 47.2809 21.9797C47.3991 22.3988 47.9475 22.6097 47.9531 22.6125C48.4615 22.7796 48.8937 23.1224 49.1721 23.5794C49.4505 24.0364 49.5569 24.5777 49.4722 25.1061C49.3875 25.6344 49.1173 26.1154 48.71 26.4625C48.3028 26.8096 47.7851 27.0002 47.25 27C47.0231 26.9998 46.7975 26.9656 46.5806 26.8988C46.2994 26.8116 43.7934 25.9622 42.9834 23.31C42.2916 21.0403 43.1381 18.4022 45.4978 15.4688Z" fill="#5FC381"/>
</g>
</svg>
