<svg width="72" height="72" viewBox="0 0 72 72" fill="none" xmlns="http://www.w3.org/2000/svg">
<g id="Cherries">
<path id="Vector" d="M49.5 20.2499C48.7708 20.2507 48.0423 20.291 47.3175 20.3709C45.7359 17.6674 43.6755 15.2743 41.2369 13.3087C30.5944 4.72213 16.0453 6.68525 15.4322 6.77244C14.9807 6.83646 14.5594 7.03614 14.224 7.34501C13.8886 7.65388 13.6549 8.05737 13.554 8.50202C13.453 8.94667 13.4895 9.4115 13.6587 9.83493C13.8279 10.2584 14.1217 10.6204 14.5013 10.8731C19.4231 14.1524 21.6759 19.5918 22.6153 24.8624C19.3362 25.2046 16.1902 26.3421 13.4507 28.1764C10.7111 30.0106 8.4608 32.4859 6.89528 35.3874C5.32975 38.2889 4.49633 41.5288 4.46742 44.8256C4.43852 48.1224 5.215 51.3763 6.72941 54.3048C8.24382 57.2333 10.4504 59.7478 13.1573 61.6298C15.8643 63.5117 18.9899 64.7043 22.2625 65.1039C25.5351 65.5034 28.8558 65.0979 31.936 63.9225C35.0163 62.7471 37.763 60.8374 39.9375 58.3593C42.6515 59.8098 45.6605 60.6227 48.7357 60.7362C51.811 60.8496 54.8716 60.2607 57.6852 59.0142C60.4988 57.7676 62.9912 55.8962 64.9732 53.5421C66.9552 51.188 68.3745 48.4131 69.1235 45.4283C69.8725 42.4435 69.9313 39.3273 69.2955 36.3163C68.6597 33.3054 67.3461 30.4789 65.4544 28.0517C63.5626 25.6245 61.1426 23.6603 58.3781 22.3085C55.6136 20.9566 52.5773 20.2526 49.5 20.2499ZM21.375 11.0728C26.0634 11.2753 32.9738 12.4171 38.43 16.8328C40.0567 18.1531 41.4785 19.7075 42.6488 21.4453C39.4247 22.6074 36.5472 24.5667 34.2844 27.1406C32.0798 25.9552 29.6732 25.1922 27.1884 24.8906C26.3081 19.2909 24.345 14.6249 21.375 11.0728ZM24.75 60.7499C20.7147 60.7479 16.834 59.197 13.9088 56.4173C10.9835 53.6375 9.23679 49.841 9.02898 45.811C8.82116 41.781 10.1681 37.825 12.7919 34.7591C15.4158 31.6933 19.1163 29.7515 23.13 29.3343C23.2936 32.2507 23.1995 35.1758 22.8488 38.0756C20.7169 37.6734 19.6566 36.7115 19.6003 36.6693C19.3913 36.4603 19.1431 36.2944 18.87 36.1813C18.5968 36.0682 18.3041 36.0099 18.0084 36.0099C17.7128 36.0099 17.4201 36.0682 17.1469 36.1813C16.8738 36.2944 16.6256 36.4603 16.4166 36.6693C16.2075 36.8784 16.0417 37.1265 15.9286 37.3997C15.8154 37.6728 15.7572 37.9656 15.7572 38.2612C15.7572 38.5568 15.8154 38.8496 15.9286 39.1227C16.0417 39.3958 16.2075 39.644 16.4166 39.8531C16.7063 40.1371 19.4625 42.7499 24.7275 42.7499H24.7978C30.0459 42.7359 32.7938 40.1399 33.0919 39.8446C33.3009 39.6356 33.4668 39.3874 33.5799 39.1143C33.693 38.8411 33.7513 38.5484 33.7513 38.2528C33.7513 37.9571 33.693 37.6644 33.5799 37.3912C33.4668 37.1181 33.3009 36.8699 33.0919 36.6609C32.8828 36.4518 32.6347 36.286 32.3615 36.1729C32.0884 36.0597 31.7956 36.0015 31.5 36.0015C31.2044 36.0015 30.9116 36.0597 30.6385 36.1729C30.3654 36.286 30.1172 36.4518 29.9081 36.6609C29.1759 37.2613 28.3173 37.6882 27.3966 37.9096C27.7026 35.1279 27.79 32.3265 27.6581 29.5312C31.5031 30.2676 34.936 32.4096 37.2875 35.5395C39.6391 38.6694 40.7407 42.5629 40.3776 46.4609C40.0145 50.3589 38.2127 53.9819 35.3235 56.6236C32.4343 59.2653 28.6648 60.7364 24.75 60.7499ZM40.7813 32.6559C39.9599 31.59 39.0347 30.6083 38.0194 29.7253C39.8843 27.7404 42.2309 26.2716 44.8312 25.4615C45.8941 28.0128 46.6129 30.6941 46.9688 33.4349C45.2559 32.9849 44.3925 32.2059 44.3447 32.1581C44.0985 31.9107 43.7981 31.724 43.4673 31.6127C43.1365 31.5014 42.7843 31.4686 42.4386 31.5169C42.093 31.5652 41.7633 31.6933 41.4756 31.8909C41.188 32.0886 40.9502 32.3505 40.7813 32.6559ZM49.5 56.2499C47.0923 56.2529 44.7162 55.7015 42.5559 54.6384C44.0317 51.9178 44.8625 48.8945 44.9844 45.8018C45.1063 42.7092 44.516 39.6298 43.2591 36.8015C45.1631 37.7691 47.2715 38.2658 49.4072 38.2499H49.5C54.7791 38.2499 57.5438 35.6399 57.8419 35.3418C58.0509 35.1328 58.2168 34.8846 58.3299 34.6115C58.443 34.3383 58.5013 34.0456 58.5013 33.7499C58.5013 33.4543 58.443 33.1616 58.3299 32.8884C58.2168 32.6153 58.0509 32.3671 57.8419 32.1581C57.6328 31.949 57.3847 31.7832 57.1115 31.6701C56.8384 31.5569 56.5456 31.4987 56.25 31.4987C55.9544 31.4987 55.6616 31.5569 55.3885 31.6701C55.1154 31.7832 54.8672 31.949 54.6581 32.1581C54.6047 32.2115 53.5781 33.1396 51.5222 33.5643C51.1835 30.551 50.4761 27.5907 49.4156 24.7499H49.5C53.6772 24.7499 57.6832 26.4093 60.6369 29.363C63.5906 32.3167 65.25 36.3228 65.25 40.4999C65.25 44.6771 63.5906 48.6832 60.6369 51.6369C57.6832 54.5906 53.6772 56.2499 49.5 56.2499Z" fill="#099137"/>
</g>
</svg>
