<svg width="72" height="72" viewBox="0 0 72 72" fill="none" xmlns="http://www.w3.org/2000/svg">
<g id="Hamburger">
<path id="Vector" d="M13.5197 29.25H58.4803C59.1539 29.2534 59.8196 29.1056 60.4285 28.8174C61.0373 28.5292 61.5736 28.108 61.998 27.5849C62.4223 27.0617 62.7238 26.45 62.8802 25.7949C63.0365 25.1397 63.0439 24.4578 62.9016 23.7994C60.8119 13.9219 49.5 6.75 36 6.75C22.5 6.75 11.1881 13.9219 9.09844 23.7994C8.95613 24.4578 8.96345 25.1397 9.11984 25.7949C9.27623 26.45 9.57771 27.0617 10.002 27.5849C10.4264 28.108 10.9627 28.5292 11.5715 28.8174C12.1804 29.1056 12.8461 29.2534 13.5197 29.25ZM36 11.25C47.1994 11.25 56.8716 17.0466 58.4803 24.75H13.5197L13.5 24.7303C15.1284 17.0466 24.8006 11.25 36 11.25ZM64.4794 42.885L52.9116 47.1037L42.4688 42.9103C41.9325 42.6959 41.3344 42.6959 40.7981 42.9103L30.3919 47.0756L19.9688 42.9103C19.4556 42.7053 18.885 42.6963 18.3656 42.885L5.99062 47.385C5.4676 47.6152 5.05177 48.0358 4.82754 48.5614C4.60331 49.0871 4.58747 49.6783 4.78325 50.2152C4.97903 50.752 5.37175 51.1943 5.8817 51.4522C6.39165 51.7101 6.98062 51.7643 7.52906 51.6037L11.25 50.2566V51.75C11.25 54.7337 12.4353 57.5952 14.545 59.705C16.6548 61.8147 19.5163 63 22.5 63H49.5C52.4837 63 55.3452 61.8147 57.455 59.705C59.5647 57.5952 60.75 54.7337 60.75 51.75V49.0303L66.0178 47.115C66.3132 47.0286 66.5877 46.8824 66.8244 46.6856C67.061 46.4889 67.2548 46.2456 67.3937 45.971C67.5326 45.6963 67.6137 45.3961 67.6319 45.0888C67.6501 44.7816 67.6051 44.4739 67.4997 44.1847C67.3942 43.8956 67.2306 43.6311 67.0189 43.4078C66.8071 43.1844 66.5518 43.0068 66.2687 42.886C65.9856 42.7653 65.6808 42.7039 65.373 42.7056C65.0652 42.7074 64.7611 42.7723 64.4794 42.8963V42.885ZM56.25 51.75C56.25 53.5402 55.5388 55.2571 54.273 56.523C53.0071 57.7888 51.2902 58.5 49.5 58.5H22.5C20.7098 58.5 18.9929 57.7888 17.727 56.523C16.4612 55.2571 15.75 53.5402 15.75 51.75V48.6225L19.0884 47.4075L29.5312 51.5897C30.0675 51.8041 30.6656 51.8041 31.2019 51.5897L41.6081 47.4244L52.0144 51.5897C52.5275 51.7947 53.0981 51.8037 53.6175 51.615L56.2247 50.6672L56.25 51.75ZM4.5 36C4.5 35.4033 4.73705 34.831 5.15901 34.409C5.58097 33.9871 6.15326 33.75 6.75 33.75H65.25C65.8467 33.75 66.419 33.9871 66.841 34.409C67.2629 34.831 67.5 35.4033 67.5 36C67.5 36.5967 67.2629 37.169 66.841 37.591C66.419 38.0129 65.8467 38.25 65.25 38.25H6.75C6.15326 38.25 5.58097 38.0129 5.15901 37.591C4.73705 37.169 4.5 36.5967 4.5 36Z" fill="#015B20"/>
</g>
</svg>
